<mxfile host="app.diagrams.net" modified="2023-12-11T02:20:56.851Z" agent="Mozilla/5.0 (Windows NT 10.0; Win64; x64) AppleWebKit/537.36 (KHTML, like Gecko) Chrome/119.0.0.0 Safari/537.36" etag="dVtR7HnmSp_xFD2wWj2U" version="22.1.7" type="github">
  <diagram name="SOP PPIC" id="PVBGpO9s_EvPg7zp4wOV">
    <mxGraphModel dx="1257" dy="723" grid="1" gridSize="10" guides="1" tooltips="1" connect="1" arrows="1" fold="1" page="1" pageScale="1" pageWidth="1500" pageHeight="1400" math="0" shadow="0">
      <root>
        <mxCell id="0" />
        <mxCell id="1" parent="0" />
      </root>
    </mxGraphModel>
  </diagram>
</mxfile>
